<svg aria-hidden="true" style="position: absolute; width: 0; height: 0; overflow: hidden;" version="1.1" xmlns="http://www.w3.org/2000/svg" xmlns:xlink="http://www.w3.org/1999/xlink">
<defs>
<symbol id="icon-tag" viewBox="0 0 24 28">
<title>tag</title>
<path d="M7 7c0-1.109-0.891-2-2-2s-2 0.891-2 2 0.891 2 2 2 2-0.891 2-2zM23.672 16c0 0.531-0.219 1.047-0.578 1.406l-7.672 7.688c-0.375 0.359-0.891 0.578-1.422 0.578s-1.047-0.219-1.406-0.578l-11.172-11.188c-0.797-0.781-1.422-2.297-1.422-3.406v-6.5c0-1.094 0.906-2 2-2h6.5c1.109 0 2.625 0.625 3.422 1.422l11.172 11.156c0.359 0.375 0.578 0.891 0.578 1.422z"></path>
</symbol>
<symbol id="icon-bars" viewBox="0 0 24 28">
<title>bars</title>
<path d="M24 21v2c0 0.547-0.453 1-1 1h-22c-0.547 0-1-0.453-1-1v-2c0-0.547 0.453-1 1-1h22c0.547 0 1 0.453 1 1zM24 13v2c0 0.547-0.453 1-1 1h-22c-0.547 0-1-0.453-1-1v-2c0-0.547 0.453-1 1-1h22c0.547 0 1 0.453 1 1zM24 5v2c0 0.547-0.453 1-1 1h-22c-0.547 0-1-0.453-1-1v-2c0-0.547 0.453-1 1-1h22c0.547 0 1 0.453 1 1z"></path>
</symbol>
<symbol id="icon-long-arrow-right" viewBox="0 0 27 28">
<title>long-arrow-right</title>
<path d="M27 13.953c0 0.141-0.063 0.281-0.156 0.375l-6 5.531c-0.156 0.141-0.359 0.172-0.547 0.094-0.172-0.078-0.297-0.25-0.297-0.453v-3.5h-19.5c-0.281 0-0.5-0.219-0.5-0.5v-3c0-0.281 0.219-0.5 0.5-0.5h19.5v-3.5c0-0.203 0.109-0.375 0.297-0.453s0.391-0.047 0.547 0.078l6 5.469c0.094 0.094 0.156 0.219 0.156 0.359v0z"></path>
</symbol>
<symbol id="icon-calendar" viewBox="0 0 20 20">
<title>calendar</title>
<path d="M17 3h-1v2h-3v-2h-6v2h-3v-2h-1c-1.101 0-2 0.9-2 2v12c0 1.1 0.899 2 2 2h14c1.1 0 2-0.9 2-2v-12c0-1.1-0.9-2-2-2zM17 17h-14v-8h14v8zM6.5 1h-2v3.5h2v-3.5zM15.5 1h-2v3.5h2v-3.5z"></path>
</symbol>
<symbol id="icon-cross" viewBox="0 0 20 20">
<title>cross</title>
<path d="M14.348 14.849c-0.469 0.469-1.229 0.469-1.697 0l-2.651-3.030-2.651 3.029c-0.469 0.469-1.229 0.469-1.697 0-0.469-0.469-0.469-1.229 0-1.697l2.758-3.15-2.759-3.152c-0.469-0.469-0.469-1.228 0-1.697s1.228-0.469 1.697 0l2.652 3.031 2.651-3.031c0.469-0.469 1.228-0.469 1.697 0s0.469 1.229 0 1.697l-2.758 3.152 2.758 3.15c0.469 0.469 0.469 1.229 0 1.698z"></path>
</symbol>
<symbol id="icon-magnifying-glass" viewBox="0 0 20 20">
<title>magnifying-glass</title>
<path d="M17.545 15.467l-3.779-3.779c0.57-0.935 0.898-2.035 0.898-3.21 0-3.417-2.961-6.377-6.378-6.377s-6.186 2.769-6.186 6.186c0 3.416 2.961 6.377 6.377 6.377 1.137 0 2.2-0.309 3.115-0.844l3.799 3.801c0.372 0.371 0.975 0.371 1.346 0l0.943-0.943c0.371-0.371 0.236-0.84-0.135-1.211zM4.004 8.287c0-2.366 1.917-4.283 4.282-4.283s4.474 2.107 4.474 4.474c0 2.365-1.918 4.283-4.283 4.283s-4.473-2.109-4.473-4.474z"></path>
</symbol>
<symbol id="icon-mail" viewBox="0 0 20 20">
<title>mail</title>
<path d="M1.574 5.286c0.488 0.262 7.248 3.894 7.5 4.029s0.578 0.199 0.906 0.199c0.328 0 0.654-0.064 0.906-0.199s7.012-3.767 7.5-4.029c0.489-0.263 0.951-1.286 0.054-1.286h-16.919c-0.897 0-0.435 1.023 0.053 1.286zM18.613 7.489c-0.555 0.289-7.387 3.849-7.727 4.027s-0.578 0.199-0.906 0.199-0.566-0.021-0.906-0.199-7.133-3.739-7.688-4.028c-0.39-0.204-0.386 0.035-0.386 0.219s0 7.293 0 7.293c0 0.42 0.566 1 1 1h16c0.434 0 1-0.58 1-1 0 0 0-7.108 0-7.292s0.004-0.423-0.387-0.219z"></path>
</symbol>
<symbol id="icon-stopwatch" viewBox="0 0 20 20">
<title>stopwatch</title>
<path d="M7.376 6.745c-0.447 0.275 1.197 4.242 1.598 4.888 0.35 0.569 1.093 0.742 1.658 0.394 0.568-0.352 0.745-1.094 0.395-1.66-0.397-0.648-3.205-3.898-3.651-3.622zM7.041 2.402c0.928-0.323 1.922-0.502 2.959-0.502s2.031 0.179 2.959 0.502c0.329 0.114 0.765-0.115 0.572-0.611-0.141-0.36-0.277-0.712-0.332-0.855-0.131-0.339-0.6-0.619-0.804-0.665-0.772-0.174-1.572-0.271-2.395-0.271s-1.623 0.097-2.396 0.271c-0.204 0.046-0.672 0.326-0.803 0.665-0.055 0.143-0.192 0.495-0.332 0.855-0.193 0.496 0.243 0.726 0.572 0.611zM19.098 3.186c-0.192-0.23-0.396-0.455-0.613-0.672-0.216-0.217-0.441-0.42-0.67-0.613-0.153-0.129-0.603-0.234-0.888 0.051s-1.648 1.647-1.648 1.647c0.402 0.288 0.793 0.605 1.155 0.966s0.677 0.752 0.966 1.155c0 0 1.363-1.362 1.647-1.647 0.286-0.286 0.181-0.735 0.051-0.887zM10 2.9c-4.475 0-8.101 3.626-8.101 8.1s3.626 8.101 8.101 8.101c4.473 0 8.1-3.626 8.1-8.101 0-4.473-3.627-8.1-8.1-8.1zM10 17.101c-3.368 0-6.1-2.731-6.1-6.1s2.731-6.1 6.1-6.1c3.369 0 6.101 2.731 6.101 6.1s-2.732 6.1-6.101 6.1z"></path>
</symbol>
<symbol id="icon-user" viewBox="0 0 20 20">
<title>user</title>
<path d="M7.725 2.146c-1.016 0.756-1.289 1.953-1.239 2.59 0.064 0.779 0.222 1.793 0.222 1.793s-0.313 0.17-0.313 0.854c0.109 1.717 0.683 0.976 0.801 1.729 0.284 1.814 0.933 1.491 0.933 2.481 0 1.649-0.68 2.42-2.803 3.334-2.13 0.918-4.326 2.073-4.326 4.073v1h18v-1c0-2-2.197-3.155-4.328-4.072-2.123-0.914-2.801-1.684-2.801-3.334 0-0.99 0.647-0.667 0.932-2.481 0.119-0.753 0.692-0.012 0.803-1.729 0-0.684-0.314-0.854-0.314-0.854s0.158-1.014 0.221-1.793c0.065-0.817-0.398-2.561-2.3-3.096-0.333-0.34-0.558-0.881 0.466-1.424-2.24-0.105-2.761 1.067-3.954 1.929z"></path>
</symbol>
<symbol id="icon-facebook-with-circle" viewBox="0 0 20 20">
<title>facebook-with-circle</title>
<path d="M10 0.4c-5.302 0-9.6 4.298-9.6 9.6s4.298 9.6 9.6 9.6 9.6-4.298 9.6-9.6-4.298-9.6-9.6-9.6zM12.274 7.034h-1.443c-0.171 0-0.361 0.225-0.361 0.524v1.042h1.805l-0.273 1.486h-1.532v4.461h-1.703v-4.461h-1.545v-1.486h1.545v-0.874c0-1.254 0.87-2.273 2.064-2.273h1.443v1.581z"></path>
</symbol>
<symbol id="icon-facebook" viewBox="0 0 20 20">
<title>facebook</title>
<path d="M17 1h-14c-1.1 0-2 0.9-2 2v14c0 1.101 0.9 2 2 2h7v-7h-2v-2.475h2v-2.050c0-2.164 1.212-3.684 3.766-3.684l1.803 0.002v2.605h-1.197c-0.994 0-1.372 0.746-1.372 1.438v1.69h2.568l-0.568 2.474h-2v7h4c1.1 0 2-0.899 2-2v-14c0-1.1-0.9-2-2-2z"></path>
</symbol>
<symbol id="icon-pinterest-with-circle" viewBox="0 0 20 20">
<title>pinterest-with-circle</title>
<path d="M10 0.4c-5.302 0-9.6 4.298-9.6 9.6s4.298 9.6 9.6 9.6 9.6-4.298 9.6-9.6-4.298-9.6-9.6-9.6zM10.657 12.275c-0.616-0.047-0.874-0.352-1.356-0.644-0.265 1.391-0.589 2.725-1.549 3.422-0.297-2.104 0.434-3.682 0.774-5.359-0.579-0.975 0.069-2.936 1.291-2.454 1.503 0.596-1.302 3.625 0.581 4.004 1.966 0.394 2.769-3.412 1.55-4.648-1.762-1.787-5.127-0.041-4.713 2.517 0.1 0.625 0.747 0.815 0.258 1.678-1.127-0.25-1.464-1.139-1.42-2.324 0.069-1.94 1.743-3.299 3.421-3.486 2.123-0.236 4.115 0.779 4.391 2.777 0.309 2.254-0.959 4.693-3.228 4.517z"></path>
</symbol>
<symbol id="icon-twitter-with-circle" viewBox="0 0 20 20">
<title>twitter-with-circle</title>
<path d="M10 0.4c-5.302 0-9.6 4.298-9.6 9.6s4.298 9.6 9.6 9.6 9.6-4.298 9.6-9.6-4.298-9.6-9.6-9.6zM13.905 8.264c0.004 0.082 0.005 0.164 0.005 0.244 0 2.5-1.901 5.381-5.379 5.381-1.068 0-2.062-0.312-2.898-0.85 0.147 0.018 0.298 0.025 0.451 0.025 0.886 0 1.701-0.301 2.348-0.809-0.827-0.016-1.525-0.562-1.766-1.312 0.115 0.021 0.233 0.033 0.355 0.033 0.172 0 0.34-0.023 0.498-0.066-0.865-0.174-1.517-0.938-1.517-1.854v-0.023c0.255 0.141 0.547 0.227 0.857 0.237-0.508-0.34-0.841-0.918-0.841-1.575 0-0.346 0.093-0.672 0.256-0.951 0.933 1.144 2.325 1.896 3.897 1.977-0.033-0.139-0.049-0.283-0.049-0.432 0-1.043 0.846-1.891 1.891-1.891 0.543 0 1.035 0.23 1.38 0.598 0.431-0.086 0.835-0.242 1.2-0.459-0.141 0.441-0.44 0.812-0.831 1.047 0.383-0.047 0.747-0.148 1.086-0.299-0.253 0.379-0.574 0.713-0.943 0.979z"></path>
</symbol>
<symbol id="icon-twitter" viewBox="0 0 20 20">
<title>twitter</title>
<path d="M17.316 6.246c0.008 0.162 0.011 0.326 0.011 0.488 0 4.99-3.797 10.742-10.74 10.742-2.133 0-4.116-0.625-5.787-1.697 0.296 0.035 0.596 0.053 0.9 0.053 1.77 0 3.397-0.604 4.688-1.615-1.651-0.031-3.046-1.121-3.526-2.621 0.23 0.043 0.467 0.066 0.71 0.066 0.345 0 0.679-0.045 0.995-0.131-1.727-0.348-3.028-1.873-3.028-3.703 0-0.016 0-0.031 0-0.047 0.509 0.283 1.092 0.453 1.71 0.473-1.013-0.678-1.68-1.832-1.68-3.143 0-0.691 0.186-1.34 0.512-1.898 1.861 2.285 4.644 3.787 7.781 3.945-0.064-0.277-0.097-0.564-0.097-0.861 0-2.084 1.689-3.773 3.774-3.773 1.086 0 2.067 0.457 2.756 1.191 0.859-0.17 1.667-0.484 2.397-0.916-0.282 0.881-0.881 1.621-1.66 2.088 0.764-0.092 1.49-0.293 2.168-0.594-0.506 0.758-1.146 1.422-1.884 1.953z"></path>
</symbol>
<symbol id="icon-cross1" viewBox="0 0 32 32">
<title>cross1</title>
<path d="M31.708 25.708c-0-0-0-0-0-0l-9.708-9.708 9.708-9.708c0-0 0-0 0-0 0.105-0.105 0.18-0.227 0.229-0.357 0.133-0.356 0.057-0.771-0.229-1.057l-4.586-4.586c-0.286-0.286-0.702-0.361-1.057-0.229-0.13 0.048-0.252 0.124-0.357 0.228 0 0-0 0-0 0l-9.708 9.708-9.708-9.708c-0-0-0-0-0-0-0.105-0.104-0.227-0.18-0.357-0.228-0.356-0.133-0.771-0.057-1.057 0.229l-4.586 4.586c-0.286 0.286-0.361 0.702-0.229 1.057 0.049 0.13 0.124 0.252 0.229 0.357 0 0 0 0 0 0l9.708 9.708-9.708 9.708c-0 0-0 0-0 0-0.104 0.105-0.18 0.227-0.229 0.357-0.133 0.355-0.057 0.771 0.229 1.057l4.586 4.586c0.286 0.286 0.702 0.361 1.057 0.229 0.13-0.049 0.252-0.124 0.357-0.229 0-0 0-0 0-0l9.708-9.708 9.708 9.708c0 0 0 0 0 0 0.105 0.105 0.227 0.18 0.357 0.229 0.356 0.133 0.771 0.057 1.057-0.229l4.586-4.586c0.286-0.286 0.362-0.702 0.229-1.057-0.049-0.13-0.124-0.252-0.229-0.357z"></path>
</symbol>
</defs>
</svg>
