<svg id="Layer_1" data-name="Layer 1" xmlns="http://www.w3.org/2000/svg" width="45" height="43.27" viewBox="0 0 45 43.27">
  <title>blood</title>
  <path d="M242.5,236.41c-0.46-1.14-2.94-1.21-5.54-.16s-4.34,2.81-3.89,3.95,2.94,1.21,5.54.16S243,237.54,242.5,236.41Z" transform="translate(-233 -225)" style="fill: #ff4c4c"/>
  <path d="M242.5,236.41a1.25,1.25,0,0,0-.7-0.66c0.36,1.14-1.36,2.86-3.91,3.88-1.95.78-3.83,0.94-4.84,0.49l0,0.07c0.46,1.14,2.94,1.21,5.54.16S243,237.54,242.5,236.41Z" transform="translate(-233 -225)" style="fill: #d43f3f"/>
  <path d="M278,227.09c0-1.16-1.62-2.09-3.62-2.09s-3.62.94-3.62,2.09,1.62,2.09,3.62,2.09S278,228.25,278,227.09Z" transform="translate(-233 -225)" style="fill: #ff4c4c"/>
  <path d="M274.38,228.2c-1.71,0-3.14-.68-3.52-1.6a1.27,1.27,0,0,0-.1.49c0,1.16,1.62,2.09,3.62,2.09s3.62-.94,3.62-2.09a1.27,1.27,0,0,0-.1-0.49C277.52,227.52,276.09,228.2,274.38,228.2Z" transform="translate(-233 -225)" style="fill: #d43f3f"/>
  <path d="M258.95,229.06a9.48,9.48,0,0,0-8.27,2.5c-1.91,2-1.43,6.48,1.33,4.85,2.11-1.25,6.17-1.93,8.27-2.5C263.53,233,261.6,229.7,258.95,229.06Z" transform="translate(-233 -225)" style="fill: #ff4c4c"/>
  <path d="M260.33,229.67c0.72,1.15.58,2.48-1.3,3-2.1.56-6.16,1.25-8.27,2.5a2.13,2.13,0,0,1-1.13.35c0.27,1.07,1.07,1.69,2.39.9,2.11-1.25,6.17-1.93,8.27-2.5C262.93,233.19,262.14,230.86,260.33,229.67Z" transform="translate(-233 -225)" style="fill: #d43f3f"/>
  <path d="M270.46,247.28c-1.59-2.23,2.63-12.68-.13-14s-10.72,7.37-14,7.37-7.32-2-10-.77-2.57,5.15-4.17,7.37-5.82,3.93-5.82,6.6,4.27,4.44,5.82,6.6,1.41,6.09,4.17,7.37c2.34,1.09,5.69-.32,8.71-0.69a13.76,13.76,0,0,1,2.55,0c3,0.37,6.38,1.78,8.71.69,2.75-1.29,2.57-5.15,4.17-7.37s5.82-3.93,5.82-6.6S272,249.44,270.46,247.28Z" transform="translate(-233 -225)" style="fill: #ff4c4c"/>
  <path d="M273.76,250.24c-0.66,2-3.78,3.38-5,5.07-1.4,2-1.24,5.36-3.67,6.49-2.06,1-5-.28-7.67-0.61a12,12,0,0,0-2.24,0c-2.66.33-5.61,1.57-7.67,0.61-2.42-1.13-2.26-4.53-3.67-6.49-1.21-1.69-4.34-3.12-5-5.07-1.34,1.09-2.52,2.24-2.52,3.65,0,2.67,4.27,4.44,5.82,6.6s1.41,6.09,4.17,7.37c2.33,1.09,5.69-.32,8.71-0.69a13.76,13.76,0,0,1,2.55,0c3,0.37,6.38,1.78,8.71.69,2.75-1.29,2.57-5.15,4.17-7.37s5.82-3.93,5.82-6.6C276.27,252.48,275.1,251.33,273.76,250.24Z" transform="translate(-233 -225)" style="fill: #d43f3f"/>
</svg>
