<svg id="Capa_1" data-name="Capa 1" xmlns="http://www.w3.org/2000/svg" width="45" height="53.27" viewBox="0 0 45 53.27">
  <title>knife</title>
  <path d="M273.44,273.72l-29.13-29.13a3.33,3.33,0,0,0-4.72,4.72l8.26,8.26-1.24,1.24a1,1,0,0,0,0,1.47,61.88,61.88,0,0,0,12.77,9.82,40.52,40.52,0,0,0,9,4.19,14.5,14.5,0,0,0,4.29,1.2,1,1,0,0,0,.74-1.78h0Zm-4.75-1.54A50,50,0,0,1,263,269.7c-0.64-.32-1.31-0.68-2-1.07v-1.31a4.06,4.06,0,0,0-1.19-2.87,2,2,0,0,1-.58-1.4v-0.6l9.88,9.88-0.41-.15h0Zm-27.62-24.34a1.25,1.25,0,0,1,1.77-1.77l8.26,8.26-1.77,1.77Zm11.5,8,4.58,4.58V263a4,4,0,0,0,1.19,2.87,2,2,0,0,1,.58,1.4v0.08a59.93,59.93,0,0,1-10.09-7.87Z" transform="translate(-233.5 -229.37)"/>
  <path d="M277.46,229.37H234.54a1,1,0,0,0-1,1v8.54a1.06,1.06,0,0,0,0,.21A107.48,107.48,0,0,1,235.08,252a119,119,0,0,1-1.56,29.35,1,1,0,0,0,1,1.23h42.92a1,1,0,0,0,1-1.23,119,119,0,0,1-1.56-29.31,107.86,107.86,0,0,1,1.56-12.93,1.06,1.06,0,0,0,0-.21v-8.54a1,1,0,0,0-1-1h0Zm-1,2.08v2.19H235.58v-2.19h40.84Zm-20,49.11a22.77,22.77,0,0,0-3.95-5.63,1,1,0,1,0-1.56,1.38,23.19,23.19,0,0,1,3.18,4.25h-18.3a111.3,111.3,0,0,0,1.56-15,13.22,13.22,0,0,0,3.9,4,24.72,24.72,0,0,0,2.25,1.26,1,1,0,1,0,.94-1.86,22.88,22.88,0,0,1-2.06-1.15,12.6,12.6,0,0,1-4.93-6.94c0-3.36-.12-6.4-0.29-9A117.72,117.72,0,0,0,235.79,240H264a1,1,0,1,0,0-2.08H235.58v-2.19h40.84v2.19h-3a1,1,0,0,0,0,2.08h2.82a117.72,117.72,0,0,0-1.36,11.92c-0.15,2.26-.26,4.9-0.29,7.8-7.27-3.36-11.37-7.58-13.56-10.61a18.76,18.76,0,0,1-3.13-6.22,1,1,0,0,0-2,.43,20.21,20.21,0,0,0,3.4,6.9c2.42,3.39,7,8.15,15.33,11.78a114.48,114.48,0,0,0,1.65,18.57H256.42Z" transform="translate(-233.5 -229.37)"/>
  <path d="M249.35,271.77a1,1,0,1,0-.56,1.36A1,1,0,0,0,249.35,271.77Z" transform="translate(-233.5 -229.37)"/>
  <path d="M267.77,239.35a1,1,0,1,0,.56-1.36A1.05,1.05,0,0,0,267.77,239.35Z" transform="translate(-233.5 -229.37)"/>
</svg>
