<svg id="Layer_1" data-name="Layer 1" xmlns="http://www.w3.org/2000/svg" width="45" height="31.64" viewBox="0 0 45 31.64">
  <title>revolver</title>
  <path d="M246.68,190.55h4a4,4,0,0,0,4-4v-1.32h2.13l2.64-5.27h5.27l2.64-5.27H278.5v-7.91h-2.64v-2.64h-2.64v2.64H245.37a6.6,6.6,0,0,0-6.08,4.05l-4-1.35L234.4,172l4.37,1.46a6.55,6.55,0,0,0,.63,2.75l-3.27,1.64v0.81a18.7,18.7,0,0,1-1.8,7.57,10.38,10.38,0,0,0-.83,4.22v5.35h13.18v-5.27Zm5.27-4a1.32,1.32,0,0,1-1.32,1.32h-4v-1.32a1.32,1.32,0,0,1,1.32-1.32h4v1.32ZM263,177.36h-3.14v-2.64h4.46Zm12.86-5.27h-16v-2.64h16v2.64Zm-18.63-2.64v7.91h-2.64v-7.91h2.64Zm-10.55,5.27H252v2.64h-5.27v-2.64Zm5.27-2.64h-5.27v-2.64H252v2.64ZM244,169.68v7.46A4,4,0,0,1,244,169.68Zm0,16.91v6.59h-7.91v-2.71a7.77,7.77,0,0,1,.61-3.15,21.92,21.92,0,0,0,2-7.81l2.28-1.14a6.56,6.56,0,0,0,4.33,1.63h11.05l-1.32,2.64H248A4,4,0,0,0,244,186.59Z" transform="translate(-233.5 -164.18)"/>
</svg>
